<svg width="50" height="50" viewBox="0 0 50 50" fill="none" xmlns="http://www.w3.org/2000/svg">
<rect width="50" height="50" fill="#FF4040"/>
<path d="M9 50V10H28.5C31.9848 10 34.7197 10.6818 37.25 12.0455C39.7955 13.3939 41.7576 15.2803 43.1364 17.7045C44.5152 20.1136 45.2045 22.9167 45.2045 26.1136C45.2045 29.3258 44.5 32.1364 43.0909 34.5455C41.697 36.9394 39.7045 38.7955 37.1136 40.1136C34.5227 41.4318 31.447 42.0909 27.8864 42.0909H25.7955V33.2273C27.4924 33.2273 28.9091 32.9318 30.0455 32.3409C31.197 31.75 32.0682 30.9242 32.6591 29.8636C33.25 28.7879 33.5455 27.5379 33.5455 26.1136C33.5455 24.6742 33.25 23.4318 32.6591 22.3864C32.0682 21.3258 31.197 20.5076 30.0455 19.9318C28.8939 19.3561 27.4773 19.0682 25.7955 19.0682H20.25L20 50H9Z" fill="white"/>
</svg>
